#!OML:ASF E:/inclinewalkrobotboard/Project1/Captureday1/Session1/subject1.ASF
:FULLY-SPECIFIED
:DEGREES
51
root 0 0 0 -0.5040498636611235 -3.018415411564148 -0.18964088888595865
lowerback 11.218257571932394 0.6360700739456736 0.39847455980786883
upperback -1.9471789272415907 0.9289504428216606 0.4944244644954623
thorax -8.38189466272758 0.4324047720447102 0.1070167019842948
lowerneck -11.402589118007452 -0.626101392896071 1.355951111246857
upperneck 18.858934612455936 -0.24475646832962217 -3.9098430019005974
head 7.8213236792234335 -0.3120110068064469 -1.5738055616105928
rclavicle -5.47274329553157E-16 -6.210769721922367E-16
rhumerus -0.4351395517004164 0.9687801987753986 -60.1586670432886
rradius 53.421768085167066
rwrist 17.49414867333307
rhand -27.27181276098831 -23.576557258258568
rfingers 7.125019999999925
rthumb -0.8632507205314051 -53.71174232491625
lclavicle -4.894131593745556E-16 -6.935641582920077E-16
lhumerus -1.224294270594207 -6.941815527718376 60.43785001113128
lradius 52.692329447880525
lwrist -11.169384309924308
lhand -37.29368025953138 -31.343732012668532
lfingers 7.125019999999921
lthumb -10.395199512658873 -1.7911439564537517
rfemur -21.376512371828767 -0.3374478551232296 19.54995065461712
rtibia 50.60573080701823
rfoot -22.75776785953675 -13.84773681649091
rtoes -12.214851325718502
lfemur -23.146547679080673 1.5518206553540022 -18.140096483608602
ltibia 50.14699957401076
lfoot -25.982308836923806 -3.6541443087236796
ltoes -16.73648405763602
52
root 0 0 0 -0.5038345771730257 -3.018543742102637 -0.1894915609031088
lowerback 11.218342865571222 0.6361425402334825 0.3984835760929545
upperback -1.9474588895321236 0.9290182595192452 0.4942866446400833
thorax -8.382243463190413 0.43242200583082413 0.10686225279429568
lowerneck -11.401990098660367 -0.6258857047711036 1.3563095386556532
upperneck 18.858888446176152 -0.24439782106649033 -3.910315841133527
head 7.821216310571774 -0.3118448322531987 -1.5739808161703865
rclavicle -5.474160769526375E-16 -6.208717941992965E-16
rhumerus -0.4444274070606866 0.9626388110971362 -60.164279861098954
rradius 53.41318810260981
rwrist 17.48979927114609
rhand -27.268670263840093 -23.56168051824759
rfingers 7.125019999999925
rthumb -0.860290233629617 -53.69705316769378
lclavicle -4.896162775084437E-16 -6.934129789290281E-16
lhumerus -1.2407444453807948 -6.937835832310829 60.4494109045565
lradius 52.679533533155364
lwrist -11.160814057151565
lhand -37.2881543421367 -31.314859218201825
lfingers 7.12501999999992
lthumb -10.389937423179955 -1.7621947945006937
rfemur -21.37751631631621 -0.3381697343693224 19.54908108454082
rtibia 50.607463436677634
rfoot -22.75982894362946 -13.84870544665704
rtoes -12.216932455349358
lfemur -23.147639540899636 1.5520601616683458 -18.13999342947766
ltibia 50.147922782723114
lfoot -25.98369139002631 -3.654105310416671
ltoes -16.737331237899305
53
root 0 0 0 -0.503960567470931 -3.0185176054664775 -0.18961871906434768
lowerback 11.218292918541964 0.6361334098512135 0.3985089898997613
upperback -1.947300509471586 0.9290072285884463 0.49435078006813665
thorax -8.382020355735277 0.4324184462276621 0.10691994536850691
lowerneck -11.402328292651006 -0.6260407180563915 1.3560909848314824
upperneck 18.85890610762952 -0.24462090510865586 -3.91002436730657
head 7.821283451070575 -0.3119369923936348 -1.5738749820433244
rclavicle -5.474592476496674E-16 -6.20693517384817E-16
rhumerus -0.458261466059092 0.9535301476180074 -60.17257725081936
rradius 53.40051778310328
rwrist 17.483416019904617
rhand -27.26404265588105 -23.539579181533853
rfingers 7.125019999999925
rthumb -0.8559594890637543 -53.67512060822601
lclavicle -4.898205496644235E-16 -6.933135108326197E-16
lhumerus -1.255764428040214 -6.934244497090812 60.45998961262866
lradius 52.66794994715
lwrist -11.152974082719808
lhand -37.28313402053664 -31.28861427885453
lfingers 7.12501999999992
lthumb -10.38513817454473 -1.7357198501207378
rfemur -21.379349591756963 -0.33928238545651057 19.547591457475182
rtibia 50.60989429903193
rfoot -22.7630925556436 -13.850300131018699
rtoes -12.220400390022157
lfemur -23.143284122988792 1.5509942585049106 -18.140439775447653
ltibia 50.14254496972808
lfoot -25.97755819395332 -3.65383561655537
ltoes -16.733292252663407
54
root 0 0 0 -0.5041371214137684 -3.0184564856128353 -0.18977658351045257
lowerback 11.218222740447262 0.636103996555815 0.3985251783235174
upperback -1.9470764689585216 0.9289751367853982 0.4944476935848039
thorax -8.38172460659776 0.43240986565910666 0.10702019533991525
lowerneck -11.402806791903757 -0.6262365851440904 1.3558009422499997
upperneck 18.858930177955365 -0.24492249033437208 -3.9096227409666895
head 7.821373204156632 -0.3120702084319912 -1.5737314258273902
rclavicle -5.475639021946221E-16 -6.205537905436301E-16
rhumerus -0.46871970267536867 0.9466381875695937 -60.178838130363104
rradius 53.39091906259566
rwrist 17.478595575684345
rhand -27.260548494152534 -23.522892778040855
rfingers 7.125019999999925
rthumb -0.8526863162871656 -53.65858503520519
lclavicle -4.899187936667105E-16 -6.932395448132659E-16
lhumerus -1.2654241483670958 -6.9319320110784926 60.46680254281429
lradius 52.660469910468635
lwrist -11.147927686940003
lhand -37.2798971699634 -31.271667037272174
lfingers 7.12501999999992
lthumb -10.382041450368565 -1.7186442541380273
rfemur -21.382044642958974 -0.34092730091662604 19.54538893058487
rtibia 50.613488693402175
rfoot -22.767930953036917 -13.852654419078709
rtoes -12.225513436124402
lfemur -23.138428555131252 1.5498061201001976 -18.140939070368347
ltibia 50.136585739591084
lfoot -25.97070817170434 -3.6535700561982303
ltoes -16.728812536788546
55
root 0 0 0 -0.5076705711090138 -3.017330243698298 -0.19327326074478313
lowerback 11.216897040958926 0.6355293299814704 0.3992477545961488
upperback -1.942581173064243 0.9284801794355144 0.49648059685012813
thorax -8.376011758275329 0.43224340377999343 0.10883869314952171
lowerneck -11.412373386049648 -0.6302516369426338 1.3499006546896026
upperneck 18.85958246644482 -0.2509397907996729 -3.9018223208350404
head 7.823154005493626 -0.3147022063794539 -1.5707884544211423
rclavicle -5.479306271226915E-16 -6.211027418085935E-16
rhumerus -0.46717305139062937 0.9479278792635935 -60.176952958046776
rradius 53.39292332621756
rwrist 17.479977184464165
rhand -27.261508425529122 -23.52725329812732
rfingers 7.125019999999925
rthumb -0.8538697854984738 -53.66382910443756
lclavicle -4.898221912409714E-16 -6.940362709528308E-16
lhumerus -1.2501315306444631 -6.935761283695598 60.456047530227075
lradius 52.674550681686014
lwrist -11.156238422028832
lhand -37.28569948005073 -31.298274252412043
lfingers 7.12501999999992
lthumb -10.387224624199643 -1.74747442256405
rfemur -21.37755505460953 -0.33800919026087906 19.549166088211507
rtibia 50.60693976775694
rfoot -22.759358187672042 -13.848151399013384
rtoes -12.216052905845583
lfemur -23.1284635773384 1.5474343637256023 -18.142192614455016
ltibia 50.124921627888234
lfoot -25.956528421011086 -3.6532528933944604
ltoes -16.720288509292978
